<svg t="1711013260580" class="icon" viewBox="0 0 1026 1024" version="1.1" xmlns="http://www.w3.org/2000/svg" p-id="3188" width="200" height="200"><path d="M349.263592 178.718381l224.252437 123.694183c6.198166 3.396353 14.112416 1.346671 17.689894-4.553713l6.440689-10.685363c3.602038-5.895267 1.478677-13.488199-4.688789-16.908088l-224.267786-123.669624c-6.192026-3.420913-14.156418-1.376347-17.679661 4.498454l-6.500041 10.716063c-3.566222 5.918803-1.472538 13.488199 4.749164 16.908088l0 0L349.263592 178.718381 349.263592 178.718381zM155.056448 500.06518 379.308885 623.781876c6.198166 3.343141 14.113439 1.328251 17.684778-4.547573l6.470365-10.685363c3.596921-5.870708 1.450025-13.517875-4.722558-16.938788L174.463451 467.970204c-6.193049-3.426029-14.113439-1.346671-17.664312 4.519943l-6.466272 10.69048C146.711386 489.046219 148.83577 496.619708 155.056448 500.06518L155.056448 500.06518 155.056448 500.06518 155.056448 500.06518zM945.848036 651.158387 497.03003 428.975075l60.300364-99.806123c3.602038-5.89936 1.449002-13.493316-4.700045-16.918321L350.809808 200.950731c-6.197142-3.400446-14.161534-1.351787-17.712407 4.548596L190.649085 441.111486c-3.498684 5.900384-1.399883 13.517875 4.744048 16.918321l201.87887 111.297852c6.14393 3.421936 14.112416 1.351787 17.630542-4.517897l60.397578-99.836823 425.828408 260.19709c5.996574 3.671623 13.843286 1.820462 17.385972-4.050246l32.373315-53.575196C954.411062 661.69844 952.142392 654.305053 945.848036 651.158387L945.848036 651.158387 945.848036 651.158387 945.848036 651.158387zM1016.687431 682.433694l-22.48613-12.342096c-6.119371-3.399423-14.136975-1.345648-17.679661 4.547573l-38.872333 64.244186c-3.542686 5.868661-1.366114 13.487176 4.753257 16.883529l22.427802 12.341073c6.167466 3.444449 14.135952 1.37123 17.709337-4.524037l38.838563-64.24214C1024.925046 693.442422 1022.826245 685.829024 1016.687431 682.433694L1016.687431 682.433694 1016.687431 682.433694 1016.687431 682.433694zM532.105897 758.738567l-27.028587 0c3.390213-3.645017-8.271384-0.268106-8.271384-5.51869l0-64.170508L66.229377 689.049369l0 64.170508c0 5.240351-22.980387 1.868557-19.544125 5.51869l-27.025517 0C7.856922 758.738567-2.3e-05 774.10044-2.3e-05 785.290293l0 64.169485c0 11.164271 7.881504 31.650861 19.659759 31.650861l512.441045 0c11.789511 0 30.92329-20.48659 30.92329-31.650861l0-64.169485C563.02407 774.130116 543.896431 758.738567 532.105897 758.738567L532.105897 758.738567 532.105897 758.738567 532.105897 758.738567zM496.805926 849.464895 66.229377 849.464895c-12.351306 0-33.120328-20.286022-33.120328-32.075533 0.038886-11.789511 20.773116-32.123628 33.120328-32.099069l430.576549 0c12.388145 0 33.148981 20.334117 33.099862 32.099069C529.905789 829.208549 509.195094 849.464895 496.805926 849.464895L496.805926 849.464895 496.805926 849.464895 496.805926 849.464895zM496.805926 849.464895" fill="#1296db" p-id="3189"></path></svg>
